<svg xmlns="http://www.w3.org/2000/svg" xmlns:xlink="http://www.w3.org/1999/xlink" width="500" zoomAndPan="magnify" viewBox="0 0 375 374.999991" height="500" preserveAspectRatio="xMidYMid meet" version="1.0"><defs><g/><clipPath id="bab67d782a"><rect x="0" width="360" y="0" height="363"/></clipPath></defs><g transform="matrix(1, 0, 0, 1, 8, 12)"><g clip-path="url(#bab67d782a)"><g fill="#ffffff" fill-opacity="1"><g transform="translate(0.837177, 332.555489)"><g><path d="M 295.25 -111.875 L 295.25 -270.1875 C 295.25 -284.726562 291.457031 -295.09375 283.875 -301.28125 C 276.289062 -307.476562 264.144531 -310.578125 247.4375 -310.578125 L 247.4375 -318.921875 L 351.421875 -318.921875 L 351.421875 -310.578125 C 337.804688 -310.578125 327.75 -306.863281 321.25 -299.4375 C 314.75 -292.007812 311.5 -282.257812 311.5 -270.1875 L 311.5 4.640625 L 303.609375 4.640625 L 68.25 -260.90625 L 68.25 -46.890625 C 68.25 -32.335938 72.113281 -22.273438 79.84375 -16.703125 C 87.582031 -11.140625 99.5 -8.359375 115.59375 -8.359375 L 118.84375 -8.359375 L 118.84375 0 L 6.96875 0 L 6.96875 -8.359375 C 36.988281 -8.359375 52 -20.738281 52 -45.5 L 52 -279.46875 C 50.132812 -281.320312 46.335938 -285.421875 40.609375 -291.765625 C 34.890625 -298.109375 29.398438 -302.75 24.140625 -305.6875 C 18.878906 -308.632812 13.15625 -310.265625 6.96875 -310.578125 L 6.96875 -318.921875 L 112.8125 -318.921875 Z M 295.25 -111.875 "/></g></g></g></g></g></svg>